<svg xmlns="http://www.w3.org/2000/svg" width="24" height="24" viewBox="0 0 24 24">
    <g fill="none" fill-rule="evenodd">
        <path fill="#666" d="M12.5 0v.01l.161.008L12.68 0l.022.02c6.143.354 11.047 5.328 11.29 11.5H24v1h-.011C23.716 18.907 18.453 24 12 24 5.547 24 .284 18.906.011 12.52H0v-1C.255 5.281 5.264.266 11.5.01V0h1zM6.615 17.633H2.503c1.76 2.96 4.862 5.026 8.468 5.36-1.908-1.78-3.361-3.567-4.356-5.36zm14.882 0h-3.825c-.989 1.782-2.43 3.557-4.32 5.324 3.468-.423 6.439-2.454 8.145-5.324zm-4.968 0l-4.029-.001.002 4.78c1.733-1.6 3.074-3.193 4.027-4.78zm-5.029-.001H7.758c.9 1.5 2.146 3.003 3.741 4.513l.001-4.513zM5.025 12.52H.972c.068 1.463.42 2.852 1.004 4.112h4.132c-.627-1.366-.989-2.737-1.083-4.112zm6.475 0H6.028c.103 1.367.496 2.737 1.18 4.113l4.292-.001V12.52zm6.76 0H12.5v4.112h4.578c.685-1.375 1.078-2.745 1.181-4.112zm4.768 0h-3.766c-.094 1.375-.456 2.746-1.083 4.112h3.845c.583-1.26.936-2.649 1.004-4.112zM5.783 7.72H1.82c-.495 1.177-.792 2.458-.85 3.8h4.034l.001-.068c.04-1.247.3-2.49.778-3.732zm5.717 0l-4.645.001c-.533 1.27-.816 2.537-.851 3.8l5.496-.001v-3.8zm5.932.001L12.5 7.72v3.8h5.783c-.035-1.262-.318-2.528-.85-3.799zm4.748 0h-3.676c.522 1.353.783 2.71.783 4.07l-.005-.271h3.748c-.058-1.342-.355-2.623-.85-3.8zM10.46 1.066l-.167.024c-3.454.536-6.378 2.673-7.99 5.629h3.913c.908-1.891 2.325-3.776 4.245-5.653zM7.326 6.72H11.5V1.427C9.63 3.2 8.24 4.964 7.325 6.72zm5.177-5.56L12.5 6.72h4.462c-.96-1.844-2.446-3.698-4.46-5.56zm1.377-.04l.212.21c1.786 1.79 3.114 3.587 3.98 5.39h3.627c-1.586-2.907-4.44-5.022-7.82-5.6z"/>
        <path fill="red" fill-rule="nonzero" d="M24 11.52L24 12.52 0 12.52 0 11.52z"/>
    </g>
</svg>
