<svg xmlns="http://www.w3.org/2000/svg" width="22" height="23" viewBox="0 0 22 23">
    <path fill="#666" fill-rule="evenodd" d="M20.786 16.71c-2.372-2.593-2.729-3.894-2.729-8.037 0-4.26-3.16-7.715-7.057-7.715-3.897 0-7.057 3.454-7.057 7.715 0 2.234-.054 3.068-.336 4.092-.35 1.275-1.068 2.496-2.393 3.945-.635.695-.185 1.882.713 1.882h5.595l-.05.55C7.471 21.274 9.05 23 11 23c1.948 0 3.528-1.727 3.528-3.857l-.05-.551h5.595c.898 0 1.348-1.187.713-1.882zM11 21.898c-1.391 0-2.52-1.234-2.52-2.755l.05-.551h4.94l.051.55c0 1.522-1.129 2.756-2.52 2.756zM1.927 17.49c3.024-3.307 3.024-5.51 3.024-8.817 0-3.652 2.708-6.613 6.05-6.613 3.34 0 6.048 2.961 6.048 6.613 0 3.306 0 5.51 3.024 8.817H1.927z"/>
</svg>
