<svg xmlns="http://www.w3.org/2000/svg" width="24" height="24" viewBox="0 0 24 24">
    <g fill="none" fill-rule="evenodd">
        <path fill="red" d="M2 6H22V10H2z"/>
        <path fill="#666" d="M21.2 0c.936 0 1.705.714 1.792 1.627L23 1.8v12c0 .936-.714 1.705-1.627 1.792l-.173.008H3.275l-.075-.006V23.4c0 .331-.269.6-.6.6-.295 0-.54-.212-.59-.492L2 23.4V.6c0-.331.269-.6.6-.6l.058.004.05-.004H21.2zm.599 10.799H3.2v3.607l.075-.006H21.2c.295 0 .54-.212.59-.492l.01-.108-.001-3.001zm0-4.531H3.2V9.6h18.599V6.268zM21.2 1.2h-18v3.868h18.599L21.8 1.8c0-.295-.212-.54-.492-.59L21.2 1.2z"/>
    </g>
</svg>
