<svg xmlns="http://www.w3.org/2000/svg" width="25" height="26" viewBox="0 0 25 26">
    <g fill="none" fill-rule="evenodd" transform="translate(.259 .5)">
        <path fill="#979797" fill-rule="nonzero" d="M21.83 2.683c.213.217.236.554.071.797l-.07.087-3.568 3.646c1.192 1.421 1.912 3.268 1.912 5.287s-.72 3.866-1.912 5.287l2.345 2.396c.238.244.238.64 0 .884-.213.217-.542.241-.78.072l-.085-.072-2.345-2.397c-1.39 1.219-3.196 1.955-5.17 1.955-1.354 0-2.628-.346-3.743-.955l-.008.018-.84 1.485c-.17.298-.544.4-.836.227-.26-.153-.367-.473-.27-.752l.047-.102.84-1.484.042-.06c-1.624-1.247-2.766-3.116-3.088-5.26l-.092.008H.61c-.337 0-.611-.28-.611-.625 0-.307.216-.562.501-.615l.11-.01H4.28l.003-.253c.058-1.92.767-3.672 1.909-5.034L3.847 4.817c-.238-.244-.238-.64 0-.884.213-.217.542-.241.78-.072l.085.072L7.057 6.33c1.39-1.219 3.196-1.955 5.17-1.955 1.975 0 3.782.736 5.171 1.955l3.568-3.647c.239-.244.626-.244.864 0zm-9.602 2.942c-3.715 0-6.726 3.078-6.726 6.875s3.011 6.875 6.726 6.875c3.714 0 6.725-3.078 6.725-6.875s-3.011-6.875-6.725-6.875z"/>
        <ellipse cx="1.834" cy="13.125" fill="red" rx="1.834" ry="1.875"/>
        <ellipse cx="8.559" cy="11.25" fill="red" rx="1.223" ry="1.25"/>
        <ellipse cx="12.839" cy="15.625" fill="red" rx="1.834" ry="1.875"/>
        <ellipse cx="13.45" cy="10" fill="red" rx="2.446" ry="2.5"/>
        <ellipse cx="2.446" cy="2.5" fill="red" rx="2.446" ry="2.5"/>
        <ellipse cx="6.725" cy="21.875" fill="red" rx="1.834" ry="1.875"/>
        <ellipse cx="22.01" cy="2.5" fill="red" rx="2.446" ry="2.5"/>
        <ellipse cx="21.398" cy="21.875" fill="red" rx="3.057" ry="3.125"/>
    </g>
</svg>
