<svg xmlns="http://www.w3.org/2000/svg" width="24" height="24" viewBox="0 0 24 24">
    <g fill="none" fill-rule="evenodd">
        <path fill="red" d="M14 17H19V23H14zM6 19H11V23H6z"/>
        <path fill="#666" d="M14 .5c.828 0 1.5.672 1.5 1.5v7.5h5.2c.942 0 1.715.603 1.793 1.37l.007.13v11c0 .828-.806 1.5-1.8 1.5H4c-.828 0-1.5-.672-1.5-1.5V2c0-.828.672-1.5 1.5-1.5zm0 1H4c-.276 0-.5.224-.5.5v20c0 .276.224.5.5.5h1.5v-4h5V11c0-.785.723-1.429 1.645-1.494L12.3 9.5h2.2V2c0-.245-.177-.45-.41-.492L14 1.5zm6.875 9h-8.75c-.345 0-.625.224-.625.5v11c0 .276.28.5.625.5H13.5v-6h6v6h1.375c.31 0 .568-.181.617-.419L21.5 22V11c0-.276-.28-.5-.625-.5zm-10.375 9h-4v3h4v-3zm8-2h-4v5h4v-5zM8.5 13v4h-4v-4h4zm-1 1h-2v2h2v-2zm11-2.5v4h-4v-4h4zm-1 1h-2v2h2v-2zM8.5 8v4h-4V8h4zm-1 1h-2v2h2V9zm1-6.5v4h-4v-4h4zm5 0v4h-4v-4h4zm-6 1h-2v2h2v-2zm5 0h-2v2h2v-2z"/>
    </g>
</svg>
