<svg xmlns="http://www.w3.org/2000/svg" width="46" height="60" viewBox="0 0 46 60">
    <g fill="none">
        <path fill="#FFF" stroke="#979797" d="M44.618.223H38.29l-.192.488c-1.643 4.179-8.109 7.29-15.68 7.29S8.382 4.89 6.738.71L6.546.222.219.223V57.78h6.08l.087-.679c.604-4.772 7.551-8.655 16.032-8.655 8.48 0 15.428 3.883 16.033 8.655l.086.679h6.08V.223z" transform="translate(.479 1)"/>
        <path fill="red" d="M18.77 36.37l-6.712-7.399c-.49-.533-.46-1.38 0-1.912.49-.533 1.256-.502 1.747 0l5.823 6.427L32.53 18.53c.46-.533 1.257-.564 1.747-.062.49.501.521 1.348.062 1.912l-13.762 15.99c-.276.25-.582.407-.92.407-.337 0-.643-.157-.888-.408z" transform="translate(.479 1)"/>
    </g>
</svg>
