<svg xmlns="http://www.w3.org/2000/svg" width="25" height="26" viewBox="0 0 25 26">
    <g fill="none">
        <path fill="red" d="M17.062 13.422h-3.017V10.34c0-.188-.15-.34-.334-.34h-3.008c-.184 0-.333.152-.333.34v3.082H7.35c-.183 0-.332.153-.332.34v3.076c0 .188.149.34.333.34h3.019v3.082c0 .188.149.34.333.34h3.008c.184 0 .334-.152.334-.34v-3.082h3.017c.184 0 .333-.152.333-.34v-3.075c0-.188-.149-.34-.333-.34z" transform="translate(.259 .5)"/>
        <path fill="#979797" d="M17.119 6.875H7.337c-1.689 0-3.057 1.4-3.057 3.125v14.375h15.895V10c0-1.726-1.368-3.125-3.056-3.125zm0 1.25l.176.009c.93.09 1.658.891 1.658 1.866v13.125H5.503V10c0-1.036.82-1.875 1.834-1.875h9.782zM20.175 1.875H4.28V3.75c0 1.036.82 1.875 1.834 1.875H18.34c1.013 0 1.834-.84 1.834-1.875V1.875zM5.502 3.125h13.45v.625c0 .345-.273.625-.61.625H6.113l-.11-.01c-.285-.053-.502-.308-.502-.615v-.625z" transform="translate(.259 .5)"/>
    </g>
</svg>
