<svg xmlns="http://www.w3.org/2000/svg" width="25" height="26" viewBox="0 0 25 26">
    <g fill="none">
        <path fill="#979797" d="M24.278 23.125l-12.05-21.9-12.05 21.9h24.1zM12.228 3.774l9.959 18.101H2.267l9.96-18.101z" transform="translate(.259 .5)"/>
        <path fill="red" d="M12.968 15.31l.335-6.56h-2.272l.335 6.56h1.602zm-.807 3.437c.359 0 .639-.102.84-.306.202-.203.302-.482.302-.835 0-.367-.1-.65-.298-.846-.2-.197-.48-.296-.844-.296-.377 0-.664.096-.86.289-.198.192-.296.477-.296.853 0 .362.1.643.302.842.201.2.486.299.854.299z" transform="translate(.259 .5)"/>
    </g>
</svg>
