<svg xmlns="http://www.w3.org/2000/svg" width="54" height="55" viewBox="0 0 54 55">
    <g fill="none">
        <path fill="#999" d="M28.251 38.543V5.779C28.251 2.6 25.698 0 22.578 0s-5.674 2.6-5.674 5.779v32.764c-2.1 1.733-3.404 4.391-3.404 7.165 0 5.085 4.085 9.246 9.078 9.246 4.992 0 9.02-4.16 9.02-9.246 0-2.774-1.248-5.432-3.347-7.165zm-5.617-36.52c2.043 0 3.745 1.675 3.745 3.813v33.747c2.042 1.329 3.404 3.64 3.404 6.183-.114 3.987-3.29 7.223-7.205 7.223s-7.092-3.236-7.092-7.223c0-2.543 1.305-4.854 3.404-6.183V5.836c0-2.08 1.645-3.814 3.744-3.814zM39.127 32.07c.198 0 .357.16.357.357v1.25c0 .198-.16.358-.357.358h-8.533c-.197 0-.357-.16-.357-.358v-1.25c0-.197.16-.357.357-.357h8.533zm-4.879-6.53c.197 0 .357.16.357.357v1.25c0 .198-.16.358-.357.358h-3.654c-.197 0-.357-.16-.357-.357v-1.25c0-.198.16-.358.357-.358h3.654zm4.88-6.53c.197 0 .356.16.356.358v1.25c0 .197-.16.357-.357.357h-8.533c-.197 0-.357-.16-.357-.357v-1.25c0-.198.16-.358.357-.358h8.533zm-4.88-6.587c.197 0 .357.16.357.357v1.25c0 .198-.16.358-.357.358h-3.654c-.197 0-.357-.16-.357-.358v-1.25c0-.197.16-.357.357-.357h3.654zm4.88-6.53c.197 0 .356.16.356.357v1.25c0 .198-.16.358-.357.358h-8.533c-.197 0-.357-.16-.357-.357v-1.25c0-.198.16-.358.357-.358h8.533z"/>
        <path fill="red" d="M24.587 40.324V20.67c0-1.051-.85-1.916-1.88-1.916-1.032 0-1.882.865-1.882 1.916v19.653c-2.124.803-3.64 2.843-3.64 5.253 0 3.09 2.487 5.624 5.521 5.624s5.522-2.534 5.522-5.624c0-2.41-1.517-4.45-3.64-5.253z"/>
    </g>
</svg>
