<svg xmlns="http://www.w3.org/2000/svg" width="24" height="24" viewBox="0 0 24 24">
    <g fill="none" fill-rule="evenodd">
        <path fill="#666" d="M17.72 2v3.116H24v15.819c0 .903-.7 1.636-1.565 1.636H1.565C.701 22.57 0 21.838 0 20.935V5.116h7.902V2h9.819zm5.236 9.661H1.043v9.274c0 .234.142.434.34.51l.088.026.094.009h20.87c.288 0 .522-.244.522-.545l-.001-9.274zm0-5.454H1.044v4.363h21.913V6.207zM16.63 3.092H8.993v2.024h7.636V3.092z"/>
        <path fill="red" d="M11 9H13V13H11z"/>
    </g>
</svg>
